HIERARCHY
ROOT Hips
{
	OFFSET 0.000000 100.481300 0.000000
	CHANNELS 6 Xposition Yposition Zposition Xrotation Yrotation Zrotation
	JOINT Spine
	{
		OFFSET -0.279200 12.230698 -2.892100
		CHANNELS 3 Xrotation Yrotation Zrotation
		JOINT Spine1
		{
			OFFSET -0.325700 14.269203 -3.374200
			CHANNELS 3 Xrotation Yrotation Zrotation
			JOINT Spine2
			{
				OFFSET -0.372300 16.307602 -0.352600
				CHANNELS 3 Xrotation Yrotation Zrotation
				JOINT Neck
				{
					OFFSET -0.418800 17.814194 8.416900
					CHANNELS 3 Xrotation Yrotation Zrotation
					JOINT Head
					{
						OFFSET 0.000000 7.031097 3.806800
						CHANNELS 3 Xrotation Yrotation Zrotation
						JOINT HeadTop_End
						{
							OFFSET 0.000000 24.646606 12.978600
							CHANNELS 3 Xrotation Yrotation Zrotation
							End Site
							{
								OFFSET 0.000000 27.854965 0.000000
							}
						}
					}
				}
				JOINT LeftShoulder
				{
					OFFSET 16.952999 14.495407 -7.737500
					CHANNELS 3 Xrotation Yrotation Zrotation
					JOINT LeftArm
					{
						OFFSET 9.308998 -2.777710 0.208600
						CHANNELS 3 Xrotation Yrotation Zrotation
						JOINT LeftForeArm
						{
							OFFSET 29.972298 0.000000 0.000000
							CHANNELS 3 Xrotation Yrotation Zrotation
							JOINT LeftHand
							{
								OFFSET 26.026505 0.000000 0.000000
								CHANNELS 3 Xrotation Yrotation Zrotation
								JOINT LeftHandThumb1
								{
									OFFSET 12.240501 -7.147949 9.207150
									CHANNELS 3 Xrotation Yrotation Zrotation
									JOINT LeftHandThumb2
									{
										OFFSET 4.138618 -2.389435 2.389433
										CHANNELS 3 Xrotation Yrotation Zrotation
										JOINT LeftHandThumb3
										{
											OFFSET 2.726913 -1.574387 1.574386
											CHANNELS 3 Xrotation Yrotation Zrotation
											JOINT LeftHandThumb4
											{
												OFFSET 3.941010 -2.275345 2.275342
												CHANNELS 3 Xrotation Yrotation Zrotation
												End Site
												{
													OFFSET -0.005798 5.087799 0.009903
												}
											}
										}
									}
								}
								JOINT LeftHandIndex1
								{
									OFFSET 24.424698 -1.985611 5.953459
									CHANNELS 3 Xrotation Yrotation Zrotation
									JOINT LeftHandIndex2
									{
										OFFSET 6.426697 0.000000 0.000000
										CHANNELS 3 Xrotation Yrotation Zrotation
										JOINT LeftHandIndex3
										{
											OFFSET 5.337898 0.000000 0.000000
											CHANNELS 3 Xrotation Yrotation Zrotation
											JOINT LeftHandIndex4
											{
												OFFSET 4.409401 0.000000 0.000000
												CHANNELS 3 Xrotation Yrotation Zrotation
												End Site
												{
													OFFSET 0.000000 4.409363 0.014373
												}
											}
										}
									}
								}
								JOINT LeftHandMiddle1
								{
									OFFSET 23.810104 0.000000 0.000000
									CHANNELS 3 Xrotation Yrotation Zrotation
									JOINT LeftHandMiddle2
									{
										OFFSET 7.176498 0.000000 0.000000
										CHANNELS 3 Xrotation Yrotation Zrotation
										JOINT LeftHandMiddle3
										{
											OFFSET 6.774902 0.000000 0.000000
											CHANNELS 3 Xrotation Yrotation Zrotation
											JOINT LeftHandMiddle4
											{
												OFFSET 5.403328 0.000000 0.000000
												CHANNELS 3 Xrotation Yrotation Zrotation
												End Site
												{
													OFFSET -0.027702 5.403244 0.017414
												}
											}
										}
									}
								}
								JOINT LeftHandRing1
								{
									OFFSET 22.908401 -0.839279 -6.020567
									CHANNELS 3 Xrotation Yrotation Zrotation
									JOINT LeftHandRing2
									{
										OFFSET 6.337502 0.000000 0.000000
										CHANNELS 3 Xrotation Yrotation Zrotation
										JOINT LeftHandRing3
										{
											OFFSET 5.779297 0.000000 0.000000
											CHANNELS 3 Xrotation Yrotation Zrotation
											JOINT LeftHandRing4
											{
												OFFSET 4.965698 0.000000 0.000000
												CHANNELS 3 Xrotation Yrotation Zrotation
												End Site
												{
													OFFSET 0.000000 4.965668 0.016186
												}
											}
										}
									}
								}
								JOINT LeftHandPinky1
								{
									OFFSET 20.037003 -1.530319 -10.950146
									CHANNELS 3 Xrotation Yrotation Zrotation
									JOINT LeftHandPinky2
									{
										OFFSET 5.254700 0.000000 0.000000
										CHANNELS 3 Xrotation Yrotation Zrotation
										JOINT LeftHandPinky3
										{
											OFFSET 4.810204 0.000000 0.000000
											CHANNELS 3 Xrotation Yrotation Zrotation
											JOINT LeftHandPinky4
											{
												OFFSET 3.647202 0.000000 0.000000
												CHANNELS 3 Xrotation Yrotation Zrotation
												End Site
												{
													OFFSET 0.000000 3.647186 0.011889
												}
											}
										}
									}
								}
							}
						}
					}
				}
				JOINT RightShoulder
				{
					OFFSET -15.141001 14.495407 -7.737500
					CHANNELS 3 Xrotation Yrotation Zrotation
					JOINT RightArm
					{
						OFFSET -9.308998 -2.777710 0.208500
						CHANNELS 3 Xrotation Yrotation Zrotation
						JOINT RightForeArm
						{
							OFFSET -29.972300 0.000000 0.000000
							CHANNELS 3 Xrotation Yrotation Zrotation
							JOINT RightHand
							{
								OFFSET -26.026505 0.000000 0.000000
								CHANNELS 3 Xrotation Yrotation Zrotation
								JOINT RightHandThumb1
								{
									OFFSET -12.240601 -7.148026 9.207092
									CHANNELS 3 Xrotation Yrotation Zrotation
									JOINT RightHandThumb2
									{
										OFFSET -4.138618 -2.389435 2.389433
										CHANNELS 3 Xrotation Yrotation Zrotation
										JOINT RightHandThumb3
										{
											OFFSET -2.726974 -1.574417 1.574421
											CHANNELS 3 Xrotation Yrotation Zrotation
											JOINT RightHandThumb4
											{
												OFFSET -3.941010 -2.275345 2.275343
												CHANNELS 3 Xrotation Yrotation Zrotation
												End Site
												{
													OFFSET 0.005814 5.087799 0.009927
												}
											}
										}
									}
								}
								JOINT RightHandIndex1
								{
									OFFSET -24.424698 -1.985657 5.953444
									CHANNELS 3 Xrotation Yrotation Zrotation
									JOINT RightHandIndex2
									{
										OFFSET -6.426697 0.000000 0.000000
										CHANNELS 3 Xrotation Yrotation Zrotation
										JOINT RightHandIndex3
										{
											OFFSET -5.337898 0.000000 0.000000
											CHANNELS 3 Xrotation Yrotation Zrotation
											JOINT RightHandIndex4
											{
												OFFSET -4.409401 0.000000 0.000000
												CHANNELS 3 Xrotation Yrotation Zrotation
												End Site
												{
													OFFSET 0.000000 4.409363 0.014408
												}
											}
										}
									}
								}
								JOINT RightHandMiddle1
								{
									OFFSET -23.810097 0.000000 0.000000
									CHANNELS 3 Xrotation Yrotation Zrotation
									JOINT RightHandMiddle2
									{
										OFFSET -7.176498 0.000000 0.000000
										CHANNELS 3 Xrotation Yrotation Zrotation
										JOINT RightHandMiddle3
										{
											OFFSET -6.774902 0.000000 0.000000
											CHANNELS 3 Xrotation Yrotation Zrotation
											JOINT RightHandMiddle4
											{
												OFFSET -5.403328 0.000000 0.000000
												CHANNELS 3 Xrotation Yrotation Zrotation
												End Site
												{
													OFFSET 0.027702 5.403244 0.017457
												}
											}
										}
									}
								}
								JOINT RightHandRing1
								{
									OFFSET -22.908302 -0.839325 -6.020576
									CHANNELS 3 Xrotation Yrotation Zrotation
									JOINT RightHandRing2
									{
										OFFSET -6.337502 0.000000 0.000000
										CHANNELS 3 Xrotation Yrotation Zrotation
										JOINT RightHandRing3
										{
											OFFSET -5.779297 0.000000 0.000000
											CHANNELS 3 Xrotation Yrotation Zrotation
											JOINT RightHandRing4
											{
												OFFSET -4.965698 0.000000 0.000000
												CHANNELS 3 Xrotation Yrotation Zrotation
												End Site
												{
													OFFSET 0.000000 4.965668 0.016226
												}
											}
										}
									}
								}
								JOINT RightHandPinky1
								{
									OFFSET -20.037003 -1.530334 -10.950259
									CHANNELS 3 Xrotation Yrotation Zrotation
									JOINT RightHandPinky2
									{
										OFFSET -5.254700 0.000000 0.000000
										CHANNELS 3 Xrotation Yrotation Zrotation
										JOINT RightHandPinky3
										{
											OFFSET -4.810204 0.000000 0.000000
											CHANNELS 3 Xrotation Yrotation Zrotation
											JOINT RightHandPinky4
											{
												OFFSET -3.647202 0.000000 0.000000
												CHANNELS 3 Xrotation Yrotation Zrotation
												End Site
												{
													OFFSET 0.000000 3.647186 0.011917
												}
											}
										}
									}
								}
							}
						}
					}
				}
			}
		}
	}
	JOINT LeftUpLeg
	{
		OFFSET 15.427100 -6.655098 0.678600
		CHANNELS 3 Xrotation Yrotation Zrotation
		JOINT LeftLeg
		{
			OFFSET 4.081073 -39.591068 13.024000
			CHANNELS 3 Xrotation Yrotation Zrotation
			JOINT LeftFoot
			{
				OFFSET -4.081074 -37.707932 -15.979700
				CHANNELS 3 Xrotation Yrotation Zrotation
				JOINT LeftToeBase
				{
					OFFSET 5.346399 -15.068900 20.645000
					CHANNELS 3 Xrotation Yrotation Zrotation
					JOINT LeftToe_End
					{
						OFFSET 2.754700 0.931300 11.300900
						CHANNELS 3 Xrotation Yrotation Zrotation
						End Site
						{
							OFFSET 0.000000 11.669021 0.000000
						}
					}
				}
			}
		}
	}
	JOINT RightUpLeg
	{
		OFFSET -15.569500 -6.655098 0.678600
		CHANNELS 3 Xrotation Yrotation Zrotation
		JOINT RightLeg
		{
			OFFSET -4.081825 -39.591045 13.023800
			CHANNELS 3 Xrotation Yrotation Zrotation
			JOINT RightFoot
			{
				OFFSET 4.081824 -37.707954 -15.979600
				CHANNELS 3 Xrotation Yrotation Zrotation
				JOINT RightToeBase
				{
					OFFSET -5.346400 -15.068900 20.645000
					CHANNELS 3 Xrotation Yrotation Zrotation
					JOINT RightToe_End
					{
						OFFSET -2.754700 0.931300 11.300900
						CHANNELS 3 Xrotation Yrotation Zrotation
						End Site
						{
							OFFSET 0.000000 11.669021 0.000000
						}
					}
				}
			}
		}
	}
}
MOTION
Frames: 4
Frame Time: 0.033333
-3.823736 93.917107 -1.678549 24.266924 -33.886515 14.951672 -0.937480 1.437831 1.065497 -1.937460 2.446745 2.000421 -1.993067 2.411970 1.975502 -3.891951 0.065427 0.349293 0.439994 2.999795 -14.452824 0.000001 0.000001 -0.000000 -0.479169 7.913470 -5.079042 206.669421 -130.190509 113.797242 0.000000 -7.790342 -0.000007 -39.673321 -13.612383 14.545045 -1.540021 3.690183 6.142353 3.939037 7.948714 0.746835 -0.579463 1.575001 2.538707 0.000002 -0.000002 -0.000000 0.000006 -0.000000 0.000004 -0.000003 0.000003 -0.000017 0.000000 0.000003 0.000002 0.000003 0.000001 0.000001 0.000002 -0.001932 0.015982 0.000005 0.001932 -0.015982 -0.000010 0.000001 -0.000002 -0.000001 0.000000 0.000003 0.000006 -0.000000 0.000004 -0.000001 -0.000000 -0.000001 -0.000001 0.000002 0.000002 -0.000000 0.000001 0.000003 -0.018069 4.054241 0.511045 -0.018102 -4.054243 -0.511051 0.000004 -0.000000 0.000002 -0.000002 0.000000 -0.000002 -0.343390 -11.026586 4.101581 -60.545761 74.039858 43.154511 0.000000 12.718965 -0.000003 -12.713717 7.366067 -36.199709 -1.849245 -3.581804 -6.586141 4.637209 -8.634120 -0.225399 -1.273761 0.137309 -2.094879 -0.000000 -0.000002 -0.000000 -0.000003 0.000000 -0.000004 -0.000001 -0.000005 0.000021 -0.000000 -0.000001 -0.000000 0.000002 0.000000 -0.000000 -0.000002 0.000000 -0.000002 -0.000000 0.000001 -0.000002 0.000006 -0.000003 0.000003 -0.000001 -0.000002 0.000002 0.000003 -0.000014 -0.000007 -0.000005 -0.000001 -0.000002 0.000003 -0.000001 0.000005 0.000002 0.000000 -0.000004 -0.000003 0.000000 -0.000002 -0.000005 -0.000001 0.000006 -0.000002 -0.000003 0.000001 0.000001 0.000001 -0.000004 -8.242864 13.405148 6.141978 7.815606 8.621541 3.261787 -12.240616 19.605628 -16.291000 -2.523220 0.000002 -0.000002 0.000000 0.000000 0.000000 -37.109360 -3.190614 -4.609311 20.638965 -2.546563 -2.390661 -3.404589 -0.214763 5.215149 -0.000040 0.000022 -0.000001 0.000000 0.000000 0.000000 
-2.782732 93.347122 -1.755184 25.625314 -33.760710 15.165400 -0.959579 1.382949 1.833348 -2.048675 2.176854 2.818510 -2.101924 2.138418 2.800727 -5.480277 0.331486 -0.275873 -2.463664 3.499696 -15.656911 -0.000001 -0.000001 0.000000 -0.463069 7.773941 -4.927119 204.975889 -128.516238 112.830081 0.000001 -8.875914 -0.000020 -39.412521 -14.721815 16.510247 -1.540021 3.690180 6.142355 3.939027 7.948720 0.746830 -0.579468 1.575000 2.538706 0.000000 0.000000 0.000000 0.000005 -0.000001 0.000004 -0.000008 0.000002 -0.000019 -0.000001 0.000001 -0.000001 0.000001 0.000001 -0.000001 -0.000000 -0.001932 0.015980 0.000005 0.001931 -0.015978 -0.000005 -0.000001 0.000003 0.000003 0.000001 0.000000 0.000005 -0.000001 0.000004 -0.000001 0.000001 0.000002 0.000001 0.000001 0.000002 -0.000001 -0.000000 -0.000001 -0.018072 4.054241 0.511042 -0.018107 -4.054239 -0.511046 -0.000001 0.000001 0.000001 -0.000002 -0.000001 -0.000001 -0.340738 -10.246444 3.590587 -71.138278 65.950401 53.889100 -0.000008 17.516729 0.000007 -12.367621 7.819434 -42.453959 -1.849253 -3.581785 -6.586138 4.637209 -8.634121 -0.225394 -1.273758 0.137310 -2.094877 0.000001 0.000000 -0.000001 0.000002 0.000001 -0.000001 -0.000002 -0.000006 0.000022 0.000002 0.000005 -0.000003 0.000002 0.000003 -0.000001 0.000003 0.000001 -0.000001 0.000001 0.000001 0.000000 0.000007 -0.000002 0.000004 0.000001 -0.000001 -0.000001 0.000000 0.000001 0.000001 -0.000001 0.000002 -0.000000 0.000002 0.000001 -0.000002 0.000000 0.000001 -0.000002 0.000002 0.000001 -0.000002 -0.000002 0.000000 0.000006 0.000001 0.000001 -0.000003 -0.000003 -0.000002 0.000002 -11.347225 12.635762 6.538995 11.010315 8.276517 2.971088 -13.711730 21.051502 -15.461790 -1.228055 0.000002 0.000001 0.000000 -0.000000 0.000000 -39.202164 -2.705519 -4.540266 21.380656 -2.987107 -2.643871 -3.058988 -0.305532 6.055678 -0.000110 -0.000005 0.000004 -0.000000 0.000000 0.000000 
-2.139296 93.011147 -1.783655 27.104733 -32.548645 16.213033 -1.141788 1.232287 2.036003 -2.423785 1.692420 2.646534 -2.464811 1.642449 2.632782 -7.320545 0.582357 -0.757096 -5.974814 3.953382 -15.711134 -0.000000 0.000000 0.000001 -0.422805 7.446846 -4.560330 205.283712 -127.619038 113.447939 -0.000007 -9.768680 -0.000001 -38.744569 -15.897521 16.974528 -1.540024 3.690180 6.142350 3.939033 7.948716 0.746829 -0.579468 1.575004 2.538710 -0.000003 0.000001 -0.000001 0.000004 -0.000003 0.000002 -0.000000 0.000001 -0.000016 0.000001 0.000001 -0.000000 0.000003 -0.000000 -0.000002 0.000000 -0.001934 0.015982 0.000008 0.001931 -0.015978 -0.000005 0.000002 0.000001 0.000000 -0.000000 0.000000 0.000004 -0.000003 0.000002 -0.000001 0.000000 0.000000 0.000001 0.000001 0.000002 0.000001 -0.000000 0.000001 -0.018073 4.054241 0.511047 -0.018104 -4.054242 -0.511048 0.000003 0.000002 0.000003 0.000002 0.000000 0.000001 -0.323232 -9.491583 3.120878 -75.036144 58.287646 56.516875 0.000002 24.535310 0.000003 -14.352005 9.485437 -48.911852 -1.849244 -3.581779 -6.586136 4.637208 -8.634121 -0.225396 -1.273758 0.137305 -2.094877 -0.000000 0.000001 -0.000001 0.000001 0.000002 0.000000 -0.000000 -0.000003 0.000021 0.000002 -0.000002 0.000001 0.000001 -0.000002 0.000001 0.000001 0.000002 -0.000000 0.000001 0.000002 0.000000 0.000006 -0.000002 0.000005 -0.000002 0.000003 -0.000001 0.000005 0.000002 -0.000001 -0.000001 -0.000002 -0.000000 0.000001 -0.000005 0.000001 0.000001 0.000001 0.000001 0.000001 0.000002 -0.000001 -0.000002 0.000002 0.000006 -0.000001 0.000000 -0.000000 0.000001 0.000000 -0.000001 -13.774841 11.963797 6.216151 12.243822 8.616311 2.472182 -14.249640 20.274641 -14.945487 -0.954290 0.000002 0.000002 0.000000 -0.000000 -0.000000 -41.633124 -3.491016 -5.671522 22.353693 -2.944601 -2.833669 -3.152592 -0.328189 6.469221 -0.000002 -0.000005 0.000000 -0.000000 0.000000 0.000000 
-1.953283 92.979370 -1.645649 28.084997 -31.259925 17.608151 -1.419085 1.122234 1.741655 -2.957509 1.366323 1.806882 -2.988942 1.300807 1.793170 -8.886678 0.682821 -1.246090 -9.081488 3.545197 -14.934379 -0.000000 0.000000 -0.000000 -0.406909 7.319361 -4.407401 207.129516 -128.519490 115.477858 -0.000011 -10.140217 -0.000010 -37.420626 -16.434704 15.867518 -1.540024 3.690182 6.142350 3.939038 7.948714 0.746830 -0.579467 1.575003 2.538709 0.000003 -0.000001 0.000000 0.000006 -0.000002 0.000002 -0.000005 0.000002 -0.000019 -0.000004 0.000001 -0.000000 -0.000004 0.000001 0.000000 0.000002 -0.001933 0.015980 0.000005 0.001933 -0.015980 -0.000005 0.000002 0.000001 0.000001 0.000000 -0.000003 0.000006 -0.000002 0.000001 -0.000003 0.000001 -0.000001 0.000001 0.000001 0.000002 0.000001 0.000001 -0.000000 -0.018069 4.054240 0.511044 -0.018107 -4.054241 -0.511047 -0.000005 0.000000 0.000003 0.000002 0.000001 -0.000002 -0.316406 -8.938783 2.712674 -77.406937 53.318212 56.081283 -0.000008 30.951204 -0.000001 -17.369760 14.540966 -48.484330 -1.849250 -3.581799 -6.586137 4.637208 -8.634121 -0.225395 -1.273759 0.137309 -2.094877 -0.000000 0.000001 -0.000001 0.000000 0.000001 -0.000000 -0.000002 -0.000004 0.000022 0.000000 -0.000001 0.000000 -0.000000 -0.000001 0.000000 0.000000 0.000001 0.000000 0.000000 0.000001 0.000000 0.000006 -0.000008 0.000005 -0.000000 -0.000005 -0.000000 -0.000002 0.000007 0.000002 -0.000001 0.000001 -0.000001 -0.000000 -0.000003 0.000000 -0.000000 -0.000003 0.000000 0.000000 0.000001 0.000000 -0.000003 0.000000 0.000007 -0.000000 0.000003 -0.000000 -0.000000 -0.000002 -0.000000 -14.504742 11.603230 5.325153 11.552787 8.814877 1.665751 -14.073870 19.192504 -14.602897 -1.257422 0.000000 -0.000001 -0.000000 -0.000000 -0.000000 -43.288390 -3.744282 -7.299613 23.132966 -3.138281 -2.913351 -3.509851 -0.315269 6.795114 -0.000032 0.000022 0.000003 -0.000000 -0.000000 0.000000 
